<?xml version="1.0" encoding="utf-8"?>
<!-- Generator: Adobe Illustrator 28.1.0, SVG Export Plug-In . SVG Version: 6.00 Build 0)  -->
<svg version="1.1" id="Layer_1" xmlns="http://www.w3.org/2000/svg" xmlns:xlink="http://www.w3.org/1999/xlink" x="140px" y="50px"
	 viewBox="155 155 155 40" style="enable-background:new 0 0 155 40; height:50px; width:100px;" xml:space="preserve">
<style type="text/css">
	.st0{fill:#FE6035;}
	.st1{fill:#FFFFFF;}
</style>
<g>
	<path class="st0" d="M2.2,32.4c0,2.4,2,4.4,4.4,4.4C6.6,34.4,4.6,32.4,2.2,32.4z"/>
	<path class="st0" d="M0,38.5c1.7,1.7,4.5,1.7,6.2,0C4.5,36.8,1.7,36.8,0,38.5z"/>
	<path class="st0" d="M29.3,32.4c-2.4,0-4.4,2-4.4,4.4C27.3,36.8,29.3,34.8,29.3,32.4z"/>
	<path class="st0" d="M25.3,38.5c1.7,1.7,4.5,1.7,6.2,0C29.8,36.8,27,36.8,25.3,38.5z"/>
	<path class="st0" d="M8.9,32.2V40H13v-3.6c0-2.2,1-4.4,2.8-6.1c1.8,1.7,2.8,3.8,2.8,6.1V40h4.1v-7.8l-6.9-6.8L8.9,32.2z"/>
	<path class="st0" d="M15.7,32.4c-1,0.9-1.5,2.2-1.5,3.4V40h3.1v-4.2C17.3,34.6,16.7,33.3,15.7,32.4z"/>
	<path class="st0" d="M19.9,25.8v-8.6l-4.1-5.3l-4.1,5.3v8.6L5.4,32h1.8l8.6-8.5l8.6,8.5h1.8L19.9,25.8z M15,16.3
		c0-0.4,0.3-0.7,0.7-0.7s0.7,0.3,0.7,0.7v2.5H15L15,16.3z"/>
	<path class="st0" d="M15.4,8.6l-6.7,8.6h1.7l5.4-6.9l5.4,6.9h1.7l-6.7-8.6v-4h1.4l1,1L20,4.2l-1.4-1.4l-1,1h-1.4V2.4l1-1L15.7,0
		l-1.4,1.4l1,1v1.4h-1.4l-1-1l-1.4,1.4l1.4,1.4l1-1h1.4L15.4,8.6L15.4,8.6z M18.6,3.9l0.3,0.3l-0.3,0.3l-0.3-0.3L18.6,3.9z
		 M15.7,1.1l0.3,0.3l-0.3,0.3l-0.3-0.3L15.7,1.1z M12.9,4.5l-0.3-0.3l0.3-0.3l0.3,0.3L12.9,4.5z"/>
</g>
<g>
	<path class="st1" d="M44,33.3l-1.8,6.4h-5.8L44,14.9h7.3L59,39.6h-6l-1.9-6.4H44z M50.3,29.1l-1.5-5.3c-0.4-1.5-0.9-3.3-1.2-4.8
		h-0.1c-0.4,1.5-0.7,3.3-1.1,4.8l-1.5,5.3H50.3z"/>
	<path class="st1" d="M66,39.6l-7.9-24.8h6.1l3,10.5c0.8,2.9,1.6,5.8,2.2,8.9h0.1c0.6-3,1.4-5.9,2.2-8.7l3.2-10.6h6l-8.3,24.8H66z"
		/>
	<path class="st1" d="M98.2,29.2h-9.1V35h10.2v4.6H83.5V14.9h15.3v4.6h-9.7v5.1h9.1V29.2z"/>
	<path class="st0" d="M103.1,39.6V14.9h6.5l5.1,9.1c1.5,2.6,2.9,5.7,4,8.5h0.1c-0.4-3.3-0.5-6.6-0.5-10.3v-7.2h5.1v24.8h-5.9
		l-5.3-9.6c-1.5-2.6-3.1-5.8-4.3-8.7l-0.1,0c0.1,3.3,0.2,6.8,0.2,10.8v7.5H103.1z"/>
	<path class="st0" d="M134.1,14.9v24.8h-5.6V14.9H134.1z"/>
	<path class="st0" d="M139.1,33.9c1.5,0.8,3.8,1.5,6.2,1.5c2.6,0,3.9-1.1,3.9-2.7c0-1.5-1.2-2.4-4.2-3.5c-4.1-1.4-6.8-3.7-6.8-7.3
		c0-4.2,3.5-7.5,9.4-7.5c2.8,0,4.8,0.6,6.3,1.2l-1.2,4.5c-1-0.5-2.8-1.2-5.2-1.2c-2.4,0-3.6,1.1-3.6,2.4c0,1.6,1.4,2.3,4.6,3.5
		c4.4,1.6,6.4,3.9,6.4,7.4c0,4.2-3.2,7.7-10,7.7c-2.8,0-5.6-0.7-7-1.5L139.1,33.9z"/>
</g>
</svg>
